<svg width="26" height="26" viewBox="0 0 26 26" fill="none" xmlns="http://www.w3.org/2000/svg">
<path d="M14.5116 19.027C14.5116 19.5725 14.0694 20.0132 13.5219 20.0132C12.9745 20.0132 12.5322 19.5725 12.5322 19.027V14.5893H8.07849C7.53105 14.5893 7.08878 14.1486 7.08878 13.6032C7.08878 13.0577 7.53105 12.617 8.07849 12.617H12.5322V8.17929C12.5322 7.63382 12.9745 7.19313 13.5219 7.19313C14.0694 7.19313 14.5116 7.63382 14.5116 8.17929V12.617H18.9654C19.5128 12.617 19.9551 13.0577 19.9551 13.6032C19.9551 14.1486 19.5128 14.5893 18.9654 14.5893H14.5116V19.027Z" fill="black"/>
<path d="M24.8985 13.1102C24.8985 19.6403 19.5852 24.9371 13.0271 24.9371C6.46894 24.9371 1.15561 19.6403 1.15561 13.1102C1.15561 6.58001 6.46894 1.2832 13.0271 1.2832C19.5852 1.2832 24.8985 6.58001 24.8985 13.1102Z" stroke="black"/>
</svg>
