<svg width="16" height="16" viewBox="0 0 16 16" fill="none" xmlns="http://www.w3.org/2000/svg">
<g clip-path="url(#clip0_58_574)">
<path d="M9.28691 11.9757C9.28691 12.312 9.01419 12.5837 8.67663 12.5837C8.33906 12.5837 8.06634 12.312 8.06634 11.9757V9.23924H5.32006C4.9825 9.23924 4.70978 8.9675 4.70978 8.63116C4.70978 8.29481 4.9825 8.02307 5.32006 8.02307H8.06634V5.28666C8.06634 4.95031 8.33906 4.67857 8.67663 4.67857C9.01419 4.67857 9.28691 4.95031 9.28691 5.28666V8.02307H12.0332C12.3708 8.02307 12.6435 8.29481 12.6435 8.63116C12.6435 8.9675 12.3708 9.23924 12.0332 9.23924H9.28691V11.9757Z" fill="#384D6C"/>
</g>
<path d="M15.5 8.3272C15.5 12.2473 12.3102 15.4283 8.37147 15.4283C4.43278 15.4283 1.24292 12.2473 1.24292 8.3272C1.24292 4.40705 4.43278 1.22607 8.37147 1.22607C12.3102 1.22607 15.5 4.40705 15.5 8.3272Z" stroke="#384D6C"/>
<defs>
<clipPath id="clip0_58_574">
<rect width="8.54398" height="9.72944" fill="white" transform="matrix(1 0 0 -1 4.40463 13.4958)"/>
</clipPath>
</defs>
</svg>
