<svg width="25" height="25" viewBox="0 0 25 25" fill="none" xmlns="http://www.w3.org/2000/svg">
<g clip-path="url(#clip0_48_787)">
<path d="M13.856 18.2438C13.856 18.7893 13.4137 19.23 12.8663 19.23C12.3189 19.23 11.8766 18.7893 11.8766 18.2438V13.8061H7.42285C6.87542 13.8061 6.43314 13.3654 6.43314 12.82C6.43314 12.2745 6.87542 11.8338 7.42285 11.8338H11.8766V7.39609C11.8766 6.85062 12.3189 6.40993 12.8663 6.40993C13.4137 6.40993 13.856 6.85062 13.856 7.39609V11.8338H18.3097C18.8572 11.8338 19.2994 12.2745 19.2994 12.82C19.2994 13.3654 18.8572 13.8061 18.3097 13.8061H13.856V18.2438Z" fill="black"/>
</g>
<path d="M24.2429 12.327C24.2429 18.8571 18.9296 24.1539 12.3714 24.1539C5.81333 24.1539 0.5 18.8571 0.5 12.327C0.5 5.79681 5.81333 0.5 12.3714 0.5C18.9296 0.5 24.2429 5.79681 24.2429 12.327Z" stroke="black"/>
<defs>
<clipPath id="clip0_48_787">
<rect width="13.856" height="15.7785" fill="white" transform="matrix(1 0 0 -1 5.93828 20.709)"/>
</clipPath>
</defs>
</svg>
