<svg width="16" height="16" viewBox="0 0 16 16" fill="none" xmlns="http://www.w3.org/2000/svg">
<g clip-path="url(#clip0_60_157)">
<path d="M8.54398 11.9757C8.54398 12.312 8.27126 12.5837 7.9337 12.5837C7.59613 12.5837 7.32341 12.312 7.32341 11.9757V9.23924H4.57713C4.23957 9.23924 3.96685 8.9675 3.96685 8.63116C3.96685 8.29481 4.23957 8.02307 4.57713 8.02307H7.32341V5.28666C7.32341 4.95031 7.59613 4.67857 7.9337 4.67857C8.27126 4.67857 8.54398 4.95031 8.54398 5.28666V8.02307H11.2903C11.6278 8.02307 11.9005 8.29481 11.9005 8.63116C11.9005 8.9675 11.6278 9.23924 11.2903 9.23924H8.54398V11.9757Z" fill="#384D6C"/>
</g>
<path d="M14.7571 8.3272C14.7571 12.2473 11.5672 15.4283 7.62855 15.4283C3.68986 15.4283 0.5 12.2473 0.5 8.3272C0.5 4.40705 3.68986 1.22607 7.62855 1.22607C11.5672 1.22607 14.7571 4.40705 14.7571 8.3272Z" stroke="#384D6C"/>
<defs>
<clipPath id="clip0_60_157">
<rect width="8.54398" height="9.72944" fill="white" transform="matrix(1 0 0 -1 3.66171 13.4958)"/>
</clipPath>
</defs>
</svg>
