<svg width="26" height="27" viewBox="0 0 26 27" fill="none" xmlns="http://www.w3.org/2000/svg">
<g clip-path="url(#clip0_89_402)">
<path d="M5.43872 1.62697V3.25393H2.71936C1.21805 3.25393 0 4.34705 0 5.69438V8.13483H25.3807V5.69438C25.3807 4.34705 24.1626 3.25393 22.6613 3.25393H19.942V1.62697C19.942 0.72705 19.1318 0 18.1291 0C17.1263 0 16.3161 0.72705 16.3161 1.62697V3.25393H9.06453V1.62697C9.06453 0.72705 8.25438 0 7.25162 0C6.24886 0 5.43872 0.72705 5.43872 1.62697ZM25.3807 9.7618H0V23.591C0 24.9383 1.21805 26.0315 2.71936 26.0315H22.6613C24.1626 26.0315 25.3807 24.9383 25.3807 23.591V9.7618Z" fill="#965BA6"/>
</g>
<defs>
<clipPath id="clip0_89_402">
<rect width="25.3807" height="26.0315" fill="white"/>
</clipPath>
</defs>
</svg>
