<svg width="29" height="30" viewBox="0 0 29 30" fill="none" xmlns="http://www.w3.org/2000/svg">
<g clip-path="url(#clip0_52_313)">
<path d="M6.13368 1.83486V3.66972H3.06684C1.37369 3.66972 0 4.90252 0 6.42202V9.17431H28.6239V6.42202C28.6239 4.90252 27.2502 3.66972 25.557 3.66972H22.4902V1.83486C22.4902 0.819954 21.5765 0 20.4456 0C19.3147 0 18.401 0.819954 18.401 1.83486V3.66972H10.2228V1.83486C10.2228 0.819954 9.30914 0 8.17824 0C7.04735 0 6.13368 0.819954 6.13368 1.83486ZM28.6239 11.0092H0V26.6055C0 28.125 1.37369 29.3578 3.06684 29.3578H25.557C27.2502 29.3578 28.6239 28.125 28.6239 26.6055V11.0092Z" fill="#C1BDBD"/>
</g>
<defs>
<clipPath id="clip0_52_313">
<rect width="28.6239" height="29.3578" fill="white"/>
</clipPath>
</defs>
</svg>
