<svg width="33" height="35" viewBox="0 0 33 35" fill="none" xmlns="http://www.w3.org/2000/svg">
<g clip-path="url(#clip0_33_850)">
<path d="M6.95151 2.94792V5.02743H3.47575C1.55685 5.02743 0 6.4246 0 8.1467V11.266H32.4404V8.1467C32.4404 6.4246 30.8835 5.02743 28.9646 5.02743H25.4889V2.94792C25.4889 1.79769 24.4534 0.868408 23.1717 0.868408C21.89 0.868408 20.8545 1.79769 20.8545 2.94792V5.02743H11.5858V2.94792C11.5858 1.79769 10.5504 0.868408 9.26868 0.868408C7.98699 0.868408 6.95151 1.79769 6.95151 2.94792ZM32.4404 13.3455H0V31.0213C0 32.7434 1.55685 34.1406 3.47575 34.1406H28.9646C30.8835 34.1406 32.4404 32.7434 32.4404 31.0213V13.3455Z" fill="#6A6A6A"/>
</g>
<defs>
<clipPath id="clip0_33_850">
<rect width="32.4404" height="33.2722" fill="white" transform="translate(0 0.868408)"/>
</clipPath>
</defs>
</svg>
