<svg width="68" height="672" viewBox="0 0 68 672" fill="none" xmlns="http://www.w3.org/2000/svg">
<g clip-path="url(#clip0_134_279)">
<path d="M5.5775 421C3.60429 421 2 422.604 2 424.578V440.676C2 442.649 3.60429 444.254 5.5775 444.254H10.9438V448.726C10.9438 449.067 11.1338 449.374 11.4357 449.525C11.7375 449.676 12.1008 449.642 12.3748 449.441L19.2894 444.254H27.0425C29.0157 444.254 30.62 442.649 30.62 440.676V424.578C30.62 422.604 29.0157 421 27.0425 421H5.5775Z" fill="#C1BDBD"/>
</g>
<g clip-path="url(#clip1_134_279)">
<path d="M6.13368 314.835V316.67H3.06684C1.37369 316.67 0 317.903 0 319.422V322.174H28.6239V319.422C28.6239 317.903 27.2502 316.67 25.557 316.67H22.4902V314.835C22.4902 313.82 21.5765 313 20.4456 313C19.3147 313 18.401 313.82 18.401 314.835V316.67H10.2228V314.835C10.2228 313.82 9.30914 313 8.17824 313C7.04735 313 6.13368 313.82 6.13368 314.835ZM28.6239 324.009H0V339.606C0 341.125 1.37369 342.358 3.06684 342.358H25.557C27.2502 342.358 28.6239 341.125 28.6239 339.606V324.009Z" fill="#C1BDBD"/>
</g>
<g clip-path="url(#clip2_134_279)">
<path d="M28.7238 645.836C28.9027 646.298 28.7517 646.812 28.366 647.141L25.9452 649.231C26.0067 649.671 26.0403 650.122 26.0403 650.578C26.0403 651.034 26.0067 651.485 25.9452 651.925L28.366 654.015C28.7517 654.344 28.9027 654.858 28.7238 655.32C28.4778 655.951 28.1815 656.555 27.8404 657.139L27.5777 657.569C27.2087 658.152 26.795 658.704 26.3422 659.223C26.0123 659.605 25.4644 659.733 24.9725 659.584L21.8585 658.645C21.1094 659.192 20.282 659.648 19.3986 659.992L18.6998 663.021C18.588 663.504 18.1967 663.885 17.6823 663.965C16.9108 664.087 16.117 664.151 15.3063 664.151C14.4957 664.151 13.7018 664.087 12.9303 663.965C12.416 663.885 12.0246 663.504 11.9128 663.021L11.214 659.992C10.3307 659.648 9.50329 659.192 8.75415 658.645L5.64578 659.589C5.15381 659.738 4.60593 659.605 4.27608 659.229C3.82325 658.709 3.40954 658.157 3.04056 657.574L2.7778 657.144C2.43678 656.561 2.14048 655.956 1.89449 655.325C1.71559 654.864 1.86654 654.349 2.25229 654.02L4.67302 651.93C4.61152 651.485 4.57798 651.034 4.57798 650.578C4.57798 650.122 4.61152 649.671 4.67302 649.231L2.25229 647.141C1.86654 646.812 1.71559 646.298 1.89449 645.836C2.14048 645.205 2.43678 644.6 2.7778 644.017L3.04056 643.587C3.40954 643.004 3.82325 642.452 4.27608 641.933C4.60593 641.551 5.15381 641.423 5.64578 641.572L8.75974 642.511C9.50888 641.964 10.3363 641.508 11.2196 641.164L11.9184 638.135C12.0302 637.652 12.4216 637.27 12.9359 637.191C13.7074 637.064 14.5013 637 15.3119 637C16.1226 637 16.9164 637.064 17.6879 637.186C18.2023 637.265 18.5936 637.647 18.7054 638.13L19.4042 641.158C20.2876 641.503 21.115 641.959 21.8641 642.505L24.9781 641.567C25.47 641.418 26.0179 641.551 26.3478 641.927C26.8006 642.447 27.2143 642.999 27.5833 643.582L27.846 644.012C28.1871 644.595 28.4834 645.2 28.7294 645.831L28.7238 645.836ZM15.3119 654.821C16.4981 654.821 17.6357 654.374 18.4744 653.578C19.3132 652.783 19.7844 651.703 19.7844 650.578C19.7844 649.453 19.3132 648.373 18.4744 647.578C17.6357 646.782 16.4981 646.335 15.3119 646.335C14.1257 646.335 12.9882 646.782 12.1494 647.578C11.3106 648.373 10.8394 649.453 10.8394 650.578C10.8394 651.703 11.3106 652.783 12.1494 653.578C12.9882 654.374 14.1257 654.821 15.3119 654.821Z" fill="#C1BDBD"/>
</g>
<g clip-path="url(#clip3_134_279)">
<path d="M29.6139 115.819C29.6139 116.722 28.8685 117.429 28.0237 117.429H26.4335L26.4683 125.467C26.4683 125.602 26.4583 125.738 26.4434 125.873V126.681C26.4434 127.79 25.5539 128.688 24.4557 128.688H23.6605C23.6059 128.688 23.5512 128.688 23.4966 128.683C23.427 128.688 23.3574 128.688 23.2878 128.688H21.6728H20.4801C19.3819 128.688 18.4924 127.79 18.4924 126.681V125.477V122.266C18.4924 121.378 17.7817 120.661 16.9021 120.661H13.7217C12.8421 120.661 12.1315 121.378 12.1315 122.266V125.477V126.681C12.1315 127.79 11.242 128.688 10.1437 128.688H8.95107H7.36583C7.29128 128.688 7.21674 128.683 7.1422 128.678C7.08257 128.683 7.02294 128.688 6.9633 128.688H6.1682C5.06995 128.688 4.18043 127.79 4.18043 126.681V121.062C4.18043 121.017 4.18043 120.967 4.1854 120.921V117.429H2.59021C1.69572 117.429 1 116.727 1 115.819C1 115.367 1.14908 114.966 1.49694 114.615L14.2385 103.401C14.5864 103.05 14.9839 103 15.3318 103C15.6797 103 16.0772 103.1 16.3754 103.351L29.0673 114.615C29.4648 114.966 29.6636 115.367 29.6139 115.819Z" fill="#965BA6"/>
</g>
<g clip-path="url(#clip4_134_279)">
<path d="M1 212.014C1 210.684 2.06843 209.605 3.38532 209.605H8.15596C9.47286 209.605 10.5413 210.684 10.5413 212.014V212.816H20.0826V212.014C20.0826 210.684 21.151 209.605 22.4679 209.605H27.2385C28.5554 209.605 29.6239 210.684 29.6239 212.014V216.83C29.6239 218.16 28.5554 219.238 27.2385 219.238H22.4679C21.151 219.238 20.0826 218.16 20.0826 216.83V216.027H10.5413V216.83C10.5413 216.916 10.5363 217.001 10.5264 217.081L14.5168 222.45H19.2875C20.6044 222.45 21.6728 223.528 21.6728 224.858V229.674C21.6728 231.004 20.6044 232.083 19.2875 232.083H14.5168C13.1999 232.083 12.1315 231.004 12.1315 229.674V224.858C12.1315 224.772 12.1365 224.687 12.1464 224.607L8.15596 219.238H3.38532C2.06843 219.238 1 218.16 1 216.83V212.014Z" fill="#C1BDBD"/>
</g>
<g clip-path="url(#clip5_134_279)">
<path d="M2.23624 531.684C1.49269 531.684 0.894501 532.282 0.894501 533.025V535.709C0.894501 536.452 1.49269 537.051 2.23624 537.051H4.91973C5.66328 537.051 6.26147 536.452 6.26147 535.709V533.025C6.26147 532.282 5.66328 531.684 4.91973 531.684H2.23624ZM10.7339 532.578C9.74441 532.578 8.94496 533.378 8.94496 534.367C8.94496 535.357 9.74441 536.156 10.7339 536.156H26.8349C27.8244 536.156 28.6239 535.357 28.6239 534.367C28.6239 533.378 27.8244 532.578 26.8349 532.578H10.7339ZM10.7339 541.523C9.74441 541.523 8.94496 542.322 8.94496 543.312C8.94496 544.302 9.74441 545.101 10.7339 545.101H26.8349C27.8244 545.101 28.6239 544.302 28.6239 543.312C28.6239 542.322 27.8244 541.523 26.8349 541.523H10.7339ZM10.7339 550.468C9.74441 550.468 8.94496 551.267 8.94496 552.257C8.94496 553.247 9.74441 554.046 10.7339 554.046H26.8349C27.8244 554.046 28.6239 553.247 28.6239 552.257C28.6239 551.267 27.8244 550.468 26.8349 550.468H10.7339ZM0.894501 541.97V544.654C0.894501 545.397 1.49269 545.996 2.23624 545.996H4.91973C5.66328 545.996 6.26147 545.397 6.26147 544.654V541.97C6.26147 541.227 5.66328 540.629 4.91973 540.629H2.23624C1.49269 540.629 0.894501 541.227 0.894501 541.97ZM2.23624 549.574C1.49269 549.574 0.894501 550.172 0.894501 550.915V553.599C0.894501 554.342 1.49269 554.94 2.23624 554.94H4.91973C5.66328 554.94 6.26147 554.342 6.26147 553.599V550.915C6.26147 550.172 5.66328 549.574 4.91973 549.574H2.23624Z" fill="#C1BDBD"/>
</g>
<line x1="67.491" y1="8.96454e-05" x2="67.25" y2="672" stroke="#CBCBCB" stroke-width="0.5"/>
<defs>
<clipPath id="clip0_134_279">
<rect width="28.62" height="28.62" fill="white" transform="translate(2 421)"/>
</clipPath>
<clipPath id="clip1_134_279">
<rect width="28.6239" height="29.3578" fill="white" transform="translate(0 313)"/>
</clipPath>
<clipPath id="clip2_134_279">
<rect width="28.6239" height="27.156" fill="white" transform="translate(1 637)"/>
</clipPath>
<clipPath id="clip3_134_279">
<rect width="28.6239" height="25.6881" fill="white" transform="translate(1 103)"/>
</clipPath>
<clipPath id="clip4_134_279">
<rect width="28.6239" height="25.6881" fill="white" transform="translate(1 208)"/>
</clipPath>
<clipPath id="clip5_134_279">
<rect width="28.6239" height="28.6239" fill="white" transform="translate(0 529)"/>
</clipPath>
</defs>
</svg>
