<svg width="26" height="24" viewBox="0 0 26 24" fill="none" xmlns="http://www.w3.org/2000/svg">
<g clip-path="url(#clip0_89_406)">
<path d="M25.4441 12.14C25.4441 12.9407 24.7832 13.568 24.0341 13.568H22.624L22.6549 20.6949C22.6549 20.815 22.6461 20.9351 22.6329 21.0552V21.7715C22.6329 22.7546 21.8441 23.551 20.8703 23.551H20.1653C20.1168 23.551 20.0684 23.551 20.0199 23.5465C19.9582 23.551 19.8965 23.551 19.8348 23.551H18.4028H17.3452C16.3714 23.551 15.5827 22.7546 15.5827 21.7715V20.7038V17.8566C15.5827 17.0692 14.9526 16.433 14.1726 16.433H11.3526C10.5726 16.433 9.94253 17.0692 9.94253 17.8566V20.7038V21.7715C9.94253 22.7546 9.15379 23.551 8.17998 23.551H7.12245H5.71682C5.65073 23.551 5.58463 23.5465 5.51853 23.5421C5.46566 23.5465 5.41278 23.551 5.35991 23.551H4.65489C3.68108 23.551 2.89234 22.7546 2.89234 21.7715V16.7889C2.89234 16.7488 2.89234 16.7044 2.89675 16.6643V13.568H1.4823C0.689157 13.568 0.0722656 12.9452 0.0722656 12.14C0.0722656 11.7396 0.204457 11.3837 0.512902 11.0723L11.8108 1.12934C12.1193 0.817925 12.4718 0.773438 12.7802 0.773438C13.0887 0.773438 13.4412 0.862412 13.7056 1.08485L24.9594 11.0723C25.3119 11.3837 25.4882 11.7396 25.4441 12.14Z" fill="#C1BDBD"/>
</g>
<defs>
<clipPath id="clip0_89_406">
<rect width="25.3807" height="22.7775" fill="white" transform="translate(0.0722656 0.773438)"/>
</clipPath>
</defs>
</svg>
