<svg width="29" height="26" viewBox="0 0 29 26" fill="none" xmlns="http://www.w3.org/2000/svg">
<g clip-path="url(#clip0_52_317)">
<path d="M28.6139 12.8189C28.6139 13.722 27.8685 14.4295 27.0237 14.4295H25.4335L25.4683 22.467C25.4683 22.6025 25.4583 22.738 25.4434 22.8734V23.6812C25.4434 24.79 24.5539 25.6881 23.4557 25.6881H22.6605C22.6059 25.6881 22.5512 25.6881 22.4966 25.6831C22.427 25.6881 22.3574 25.6881 22.2878 25.6881H20.6728H19.4801C18.3819 25.6881 17.4924 24.79 17.4924 23.6812V22.4771V19.2661C17.4924 18.378 16.7817 17.6605 15.9021 17.6605H12.7217C11.8421 17.6605 11.1315 18.378 11.1315 19.2661V22.4771V23.6812C11.1315 24.79 10.242 25.6881 9.14373 25.6881H7.95107H6.36583C6.29128 25.6881 6.21674 25.6831 6.1422 25.678C6.08257 25.6831 6.02294 25.6881 5.9633 25.6881H5.1682C4.06995 25.6881 3.18043 24.79 3.18043 23.6812V18.0619C3.18043 18.0168 3.18043 17.9666 3.1854 17.9214V14.4295H1.59021C0.695719 14.4295 0 13.7271 0 12.8189C0 12.3674 0.149083 11.966 0.496942 11.6148L13.2385 0.401376C13.5864 0.050172 13.9839 0 14.3318 0C14.6797 0 15.0772 0.100344 15.3754 0.351204L28.0673 11.6148C28.4648 11.966 28.6636 12.3674 28.6139 12.8189Z" fill="#C1BDBD"/>
</g>
<defs>
<clipPath id="clip0_52_317">
<rect width="28.6239" height="25.6881" fill="white"/>
</clipPath>
</defs>
</svg>
