<svg width="33" height="30" viewBox="0 0 33 30" fill="none" xmlns="http://www.w3.org/2000/svg">
<g clip-path="url(#clip0_33_854)">
<path d="M32.4291 14.5281C32.4291 15.5517 31.5843 16.3534 30.6269 16.3534H28.8246L28.864 25.4626C28.864 25.6162 28.8528 25.7697 28.8359 25.9232V26.8387C28.8359 28.0953 27.8278 29.1131 26.5831 29.1131H25.682C25.62 29.1131 25.5581 29.1131 25.4961 29.1075C25.4173 29.1131 25.3384 29.1131 25.2596 29.1131H23.4292H22.0775C20.8328 29.1131 19.8247 28.0953 19.8247 26.8387V25.474V21.8349C19.8247 20.8284 19.0193 20.0153 18.0224 20.0153H14.4179C13.4211 20.0153 12.6157 20.8284 12.6157 21.8349V25.474V26.8387C12.6157 28.0953 11.6076 29.1131 10.3629 29.1131H9.01121H7.2146C7.13012 29.1131 7.04564 29.1075 6.96116 29.1018C6.89358 29.1075 6.82599 29.1131 6.75841 29.1131H5.85729C4.61261 29.1131 3.60449 28.0953 3.60449 26.8387V20.4702C3.60449 20.419 3.60449 20.3621 3.61012 20.311V16.3534H1.80224C0.788481 16.3534 0 15.5573 0 14.5281C0 14.0164 0.16896 13.5615 0.563201 13.1635L15.0037 0.454893C15.3979 0.0568616 15.8485 0 16.2427 0C16.637 0 17.0875 0.113723 17.4254 0.398031L31.8096 13.1635C32.2601 13.5615 32.4854 14.0164 32.4291 14.5281Z" fill="black"/>
</g>
<defs>
<clipPath id="clip0_33_854">
<rect width="32.4404" height="29.1131" fill="white"/>
</clipPath>
</defs>
</svg>
