<svg width="20" height="20" viewBox="0 0 20 20" fill="none" xmlns="http://www.w3.org/2000/svg">
<path fill-rule="evenodd" clip-rule="evenodd" d="M6.07358 11.2539C6.22954 11.098 6.44103 11.0104 6.66156 11.0104C6.88209 11.0104 7.09358 11.098 7.24954 11.2539L9.9882 13.9926L12.7269 11.2539C12.8036 11.1745 12.8953 11.1111 12.9968 11.0675C13.0983 11.0239 13.2074 11.001 13.3178 11C13.4283 10.9991 13.5378 11.0201 13.64 11.0619C13.7422 11.1037 13.835 11.1655 13.9131 11.2436C13.9912 11.3217 14.053 11.4145 14.0948 11.5167C14.1366 11.6189 14.1576 11.7285 14.1567 11.8389C14.1557 11.9493 14.1328 12.0584 14.0892 12.1599C14.0456 12.2614 13.9823 12.3531 13.9028 12.4299L10.5762 15.7565C10.4202 15.9124 10.2087 16 9.9882 16C9.76767 16 9.55617 15.9124 9.40022 15.7565L6.07358 12.4299C5.91766 12.2739 5.83008 12.0624 5.83008 11.8419C5.83008 11.6214 5.91766 11.4099 6.07358 11.2539Z" fill="#A1A1AA"/>
<path fill-rule="evenodd" clip-rule="evenodd" d="M13.9132 8.74586C13.7573 8.90177 13.5458 8.98936 13.3252 8.98936C13.1047 8.98936 12.8932 8.90177 12.7373 8.74586L9.9986 6.0072L7.25994 8.74586C7.18322 8.82529 7.09145 8.88865 6.98999 8.93224C6.88852 8.97582 6.77939 8.99876 6.66896 8.99972C6.55854 9.00068 6.44902 8.97964 6.34682 8.93782C6.24461 8.89601 6.15175 8.83425 6.07367 8.75617C5.99558 8.67808 5.93383 8.58522 5.89201 8.48302C5.85019 8.38081 5.82915 8.2713 5.83011 8.16087C5.83107 8.05044 5.85401 7.94131 5.8976 7.83985C5.94118 7.73838 6.00454 7.64661 6.08397 7.56989L9.41061 4.24325C9.56657 4.08734 9.77807 3.99976 9.9986 3.99976C10.2191 3.99976 10.4306 4.08734 10.5866 4.24325L13.9132 7.56989C14.0691 7.72585 14.1567 7.93735 14.1567 8.15788C14.1567 8.3784 14.0691 8.5899 13.9132 8.74586Z" fill="#A1A1AA"/>
</svg>
