<svg width="26" height="25" viewBox="0 0 26 25" fill="none" xmlns="http://www.w3.org/2000/svg">
<g clip-path="url(#clip0_89_382)">
<path d="M20.6434 10.0877C20.6434 12.3138 19.9207 14.3701 18.7034 16.0384L24.8433 22.1832C25.4496 22.7894 25.4496 23.7739 24.8433 24.3802C24.2371 24.9864 23.2526 24.9864 22.6464 24.3802L16.5065 18.2354C14.8381 19.4576 12.7818 20.1754 10.5557 20.1754C4.98322 20.1754 0.468018 15.6601 0.468018 10.0877C0.468018 4.5152 4.98322 0 10.5557 0C16.1282 0 20.6434 4.5152 20.6434 10.0877ZM10.5557 17.0715C11.4728 17.0715 12.381 16.8908 13.2283 16.5398C14.0756 16.1889 14.8455 15.6745 15.494 15.026C16.1425 14.3774 16.6569 13.6076 17.0079 12.7603C17.3588 11.9129 17.5395 11.0048 17.5395 10.0877C17.5395 9.17055 17.3588 8.26241 17.0079 7.4151C16.6569 6.56779 16.1425 5.7979 15.494 5.1494C14.8455 4.5009 14.0756 3.98648 13.2283 3.63551C12.381 3.28454 11.4728 3.1039 10.5557 3.1039C9.63857 3.1039 8.73043 3.28454 7.88312 3.63551C7.03581 3.98648 6.26592 4.5009 5.61742 5.1494C4.96891 5.7979 4.45449 6.56779 4.10353 7.4151C3.75256 8.26241 3.57192 9.17055 3.57192 10.0877C3.57192 11.0048 3.75256 11.9129 4.10353 12.7603C4.45449 13.6076 4.96891 14.3774 5.61742 15.026C6.26592 15.6745 7.03581 16.1889 7.88312 16.5398C8.73043 16.8908 9.63857 17.0715 10.5557 17.0715Z" fill="#5D5D5D"/>
</g>
<defs>
<clipPath id="clip0_89_382">
<rect width="24.8312" height="24.8312" fill="white" transform="translate(0.468018)"/>
</clipPath>
</defs>
</svg>
