<svg width="29" height="26" viewBox="0 0 29 26" fill="none" xmlns="http://www.w3.org/2000/svg">
<g clip-path="url(#clip0_52_319)">
<path d="M0 4.01373C0 2.68417 1.06843 1.60547 2.38532 1.60547H7.15596C8.47286 1.60547 9.54128 2.68417 9.54128 4.01373V4.81648H19.0826V4.01373C19.0826 2.68417 20.151 1.60547 21.4679 1.60547H26.2385C27.5554 1.60547 28.6239 2.68417 28.6239 4.01373V8.83024C28.6239 10.1598 27.5554 11.2385 26.2385 11.2385H21.4679C20.151 11.2385 19.0826 10.1598 19.0826 8.83024V8.02749H9.54128V8.83024C9.54128 8.91553 9.53631 9.00082 9.52638 9.0811L13.5168 14.4495H18.2875C19.6044 14.4495 20.6728 15.5282 20.6728 16.8578V21.6743C20.6728 23.0038 19.6044 24.0825 18.2875 24.0825H13.5168C12.1999 24.0825 11.1315 23.0038 11.1315 21.6743V16.8578C11.1315 16.7725 11.1365 16.6872 11.1464 16.6069L7.15596 11.2385H2.38532C1.06843 11.2385 0 10.1598 0 8.83024V4.01373Z" fill="#965BA6"/>
</g>
<defs>
<clipPath id="clip0_52_319">
<rect width="28.6239" height="25.6881" fill="white"/>
</clipPath>
</defs>
</svg>
