<svg width="33" height="30" viewBox="0 0 33 30" fill="none" xmlns="http://www.w3.org/2000/svg">
<g clip-path="url(#clip0_33_856)">
<path d="M0 4.98326C0 3.47643 1.21088 2.25391 2.70336 2.25391H8.11009C9.60257 2.25391 10.8135 3.47643 10.8135 4.98326V5.89305H21.6269V4.98326C21.6269 3.47643 22.8378 2.25391 24.3303 2.25391H29.737C31.2295 2.25391 32.4404 3.47643 32.4404 4.98326V10.442C32.4404 11.9488 31.2295 13.1713 29.737 13.1713H24.3303C22.8378 13.1713 21.6269 11.9488 21.6269 10.442V9.53219H10.8135V10.442C10.8135 10.5386 10.8078 10.6353 10.7966 10.7263L15.3191 16.8105H20.7258C22.2183 16.8105 23.4292 18.033 23.4292 19.5398V24.9986C23.4292 26.5054 22.2183 27.7279 20.7258 27.7279H15.3191C13.8266 27.7279 12.6157 26.5054 12.6157 24.9986V19.5398C12.6157 19.4432 12.6213 19.3465 12.6326 19.2555L8.11009 13.1713H2.70336C1.21088 13.1713 0 11.9488 0 10.442V4.98326Z" fill="#6A6A6A"/>
</g>
<defs>
<clipPath id="clip0_33_856">
<rect width="32.4404" height="29.1131" fill="white" transform="translate(0 0.434326)"/>
</clipPath>
</defs>
</svg>
