<svg width="28" height="24" viewBox="0 0 28 24" fill="none" xmlns="http://www.w3.org/2000/svg">
<ellipse cx="24.4311" cy="3.47762" rx="3.49017" ry="3.47762" fill="#F05D5D"/>
<g clip-path="url(#clip0_85_220)">
<path d="M10.4704 0C9.64307 0 8.97465 0.647525 8.97465 1.44901V2.31841C5.56238 2.98858 2.9915 5.91376 2.9915 9.41855V10.5687C2.9915 12.6245 2.26698 14.6214 0.944146 16.2244L0.247671 17.0711C-0.0234403 17.3972 -0.074858 17.8454 0.112115 18.2213C0.299088 18.5971 0.691732 18.8371 1.12177 18.8371H19.8191C20.2491 18.8371 20.6418 18.5971 20.8287 18.2213C21.0157 17.8454 20.9643 17.3972 20.6932 17.0711L19.9967 16.2289C18.6739 14.6214 17.9494 12.6245 17.9494 10.5687V9.41855C17.9494 5.91376 15.3785 2.98858 11.9662 2.31841V1.44901C11.9662 0.647525 11.2978 0 10.4704 0ZM10.4704 4.34702C13.3638 4.34702 15.7057 6.61563 15.7057 9.41855V10.5687C15.7057 12.7377 16.3554 14.8523 17.5614 16.6636H3.37947C4.58545 14.8523 5.23518 12.7377 5.23518 10.5687V9.41855C5.23518 6.61563 7.57702 4.34702 10.4704 4.34702ZM13.462 20.2861H10.4704H7.47886C7.47886 21.0559 7.79204 21.794 8.35296 22.3374C8.91388 22.8807 9.6758 23.1841 10.4704 23.1841C11.2651 23.1841 12.027 22.8807 12.5879 22.3374C13.1488 21.794 13.462 21.0559 13.462 20.2861Z" fill="#384D6C"/>
</g>
<defs>
<clipPath id="clip0_85_220">
<rect width="20.941" height="23.1841" fill="white"/>
</clipPath>
</defs>
</svg>
