<svg width="26" height="22" viewBox="0 0 26 22" fill="none" xmlns="http://www.w3.org/2000/svg">
<ellipse cx="22.3236" cy="3.70789" rx="3.18908" ry="3.17762" fill="#F05D5D"/>
<g clip-path="url(#clip0_42_474)">
<path d="M9.5672 0.530273C8.81122 0.530273 8.20045 1.12194 8.20045 1.85428V2.64869C5.08255 3.26104 2.73345 5.93388 2.73345 9.13633V10.1873C2.73345 12.0657 2.07143 13.8903 0.862706 15.355L0.226313 16.1287C-0.0214103 16.4266 -0.0683923 16.8363 0.102451 17.1797C0.273295 17.5231 0.632067 17.7424 1.02501 17.7424H18.1094C18.5023 17.7424 18.8611 17.5231 19.0319 17.1797C19.2028 16.8363 19.1558 16.4266 18.9081 16.1287L18.2717 15.3592C17.063 13.8903 16.401 12.0657 16.401 10.1873V9.13633C16.401 5.93388 14.0518 3.26104 10.9339 2.64869V1.85428C10.9339 1.12194 10.3232 0.530273 9.5672 0.530273ZM9.5672 4.5023C12.211 4.5023 14.3508 6.5752 14.3508 9.13633V10.1873C14.3508 12.1691 14.9445 14.1014 16.0464 15.7564H3.08795C4.18989 14.1014 4.78357 12.1691 4.78357 10.1873V9.13633C4.78357 6.5752 6.92339 4.5023 9.5672 4.5023ZM12.3007 19.0664H9.5672H6.8337C6.8337 19.7698 7.11986 20.4442 7.63239 20.9407C8.14492 21.4372 8.84111 21.7144 9.5672 21.7144C10.2933 21.7144 10.9895 21.4372 11.502 20.9407C12.0145 20.4442 12.3007 19.7698 12.3007 19.0664Z" fill="black"/>
</g>
<defs>
<clipPath id="clip0_42_474">
<rect width="19.1345" height="21.1841" fill="white" transform="translate(0 0.530273)"/>
</clipPath>
</defs>
</svg>
