<svg width="27" height="24" viewBox="0 0 27 24" fill="none" xmlns="http://www.w3.org/2000/svg">
<g clip-path="url(#clip0_89_408)">
<path d="M0.657227 4.33241C0.657227 3.1535 1.6046 2.19702 2.77228 2.19702H7.00239C8.17008 2.19702 9.11745 3.1535 9.11745 4.33241V5.04421H17.5777V4.33241C17.5777 3.1535 18.525 2.19702 19.6927 2.19702H23.9228C25.0905 2.19702 26.0379 3.1535 26.0379 4.33241V8.6032C26.0379 9.78212 25.0905 10.7386 23.9228 10.7386H19.6927C18.525 10.7386 17.5777 9.78212 17.5777 8.6032V7.8914H9.11745V8.6032C9.11745 8.67883 9.11304 8.75446 9.10423 8.82564L12.6425 13.5858H16.8727C18.0403 13.5858 18.9877 14.5423 18.9877 15.7212V19.992C18.9877 21.1709 18.0403 22.1274 16.8727 22.1274H12.6425C11.4749 22.1274 10.5275 21.1709 10.5275 19.992V15.7212C10.5275 15.6455 10.5319 15.5699 10.5407 15.4987L7.00239 10.7386H2.77228C1.6046 10.7386 0.657227 9.78212 0.657227 8.6032V4.33241Z" fill="#C1BDBD"/>
</g>
<defs>
<clipPath id="clip0_89_408">
<rect width="25.3807" height="22.7775" fill="white" transform="translate(0.657227 0.773438)"/>
</clipPath>
</defs>
</svg>
