<svg width="7" height="23" viewBox="0 0 7 23" fill="none" xmlns="http://www.w3.org/2000/svg">
<path d="M3.5 16.1719C2.68777 16.1719 1.90882 16.4369 1.33449 16.9087C0.760155 17.3805 0.4375 18.0203 0.4375 18.6875C0.4375 19.3547 0.760155 19.9945 1.33449 20.4663C1.90882 20.9381 2.68777 21.2031 3.5 21.2031C4.31223 21.2031 5.09118 20.9381 5.66551 20.4663C6.23984 19.9945 6.5625 19.3547 6.5625 18.6875C6.5625 18.0203 6.23984 17.3805 5.66551 16.9087C5.09118 16.4369 4.31223 16.1719 3.5 16.1719ZM3.5 8.98438C2.68777 8.98438 1.90882 9.24941 1.33449 9.72118C0.760155 10.193 0.4375 10.8328 0.4375 11.5C0.4375 12.1672 0.760155 12.807 1.33449 13.2788C1.90882 13.7506 2.68777 14.0156 3.5 14.0156C4.31223 14.0156 5.09118 13.7506 5.66551 13.2788C6.23984 12.807 6.5625 12.1672 6.5625 11.5C6.5625 10.8328 6.23984 10.193 5.66551 9.72118C5.09118 9.24941 4.31223 8.98438 3.5 8.98438ZM6.5625 4.3125C6.5625 3.64531 6.23984 3.00546 5.66551 2.53368C5.09118 2.06191 4.31223 1.79688 3.5 1.79688C2.68777 1.79688 1.90882 2.06191 1.33449 2.53368C0.760155 3.00546 0.4375 3.64531 0.4375 4.3125C0.4375 4.97969 0.760155 5.61954 1.33449 6.09132C1.90882 6.56309 2.68777 6.82812 3.5 6.82812C4.31223 6.82812 5.09118 6.56309 5.66551 6.09132C6.23984 5.61954 6.5625 4.97969 6.5625 4.3125Z" fill="#384D6C"/>
</svg>
