<svg width="26" height="25" viewBox="0 0 26 25" fill="none" xmlns="http://www.w3.org/2000/svg">
<g clip-path="url(#clip0_89_404)">
<path d="M24.9978 8.72183C25.1565 9.13099 25.0226 9.58717 24.6806 9.87876L22.5341 11.7317C22.5886 12.1221 22.6184 12.5218 22.6184 12.9263C22.6184 13.3307 22.5886 13.7305 22.5341 14.1208L24.6806 15.9738C25.0226 16.2654 25.1565 16.7215 24.9978 17.1307C24.7797 17.6904 24.517 18.2265 24.2146 18.7438L23.9816 19.1248C23.6544 19.6421 23.2876 20.1312 22.8861 20.5921C22.5936 20.9307 22.1078 21.0436 21.6716 20.9119L18.9104 20.0795C18.2462 20.5639 17.5125 20.9683 16.7293 21.274L16.1096 23.9594C16.0105 24.3874 15.6635 24.726 15.2074 24.7965C14.5233 24.9047 13.8194 24.9611 13.1006 24.9611C12.3818 24.9611 11.6779 24.9047 10.9938 24.7965C10.5378 24.726 10.1908 24.3874 10.0916 23.9594L9.47199 21.274C8.68876 20.9683 7.9551 20.5639 7.29084 20.0795L4.53466 20.9166C4.09843 21.0483 3.61263 20.9307 3.32016 20.5968C2.91863 20.1359 2.5518 19.6468 2.22462 19.1295L1.99164 18.7485C1.68925 18.2312 1.42652 17.6951 1.2084 17.1354C1.04978 16.7263 1.18362 16.2701 1.52566 15.9785L3.67211 14.1255C3.61759 13.7305 3.58784 13.3307 3.58784 12.9263C3.58784 12.5218 3.61759 12.1221 3.67211 11.7317L1.52566 9.87876C1.18362 9.58717 1.04978 9.13099 1.2084 8.72183C1.42652 8.16218 1.68925 7.62605 1.99164 7.10872L2.22462 6.72778C2.5518 6.21046 2.91863 5.72135 3.32016 5.26046C3.61263 4.92185 4.09843 4.80898 4.53466 4.94066L7.2958 5.77308C7.96006 5.28868 8.69372 4.88423 9.47695 4.57853L10.0966 1.89315C10.1957 1.46518 10.5427 1.12657 10.9988 1.05602C11.6829 0.943154 12.3868 0.886719 13.1056 0.886719C13.8244 0.886719 14.5283 0.943154 15.2124 1.05132C15.6684 1.12187 16.0154 1.46048 16.1146 1.88845L16.7342 4.57383C17.5175 4.87952 18.2511 5.28398 18.9154 5.76838L21.6765 4.93596C22.1128 4.80428 22.5986 4.92185 22.891 5.25576C23.2926 5.71665 23.6594 6.20575 23.9866 6.72308L24.2196 7.10402C24.5219 7.62134 24.7847 8.15748 25.0028 8.71713L24.9978 8.72183ZM13.1056 16.6886C14.1574 16.6886 15.1661 16.2922 15.9098 15.5867C16.6535 14.8811 17.0713 13.9241 17.0713 12.9263C17.0713 11.9284 16.6535 10.9715 15.9098 10.2659C15.1661 9.5603 14.1574 9.16391 13.1056 9.16391C12.0538 9.16391 11.0451 9.5603 10.3014 10.2659C9.55768 10.9715 9.13986 11.9284 9.13986 12.9263C9.13986 13.9241 9.55768 14.8811 10.3014 15.5867C11.0451 16.2922 12.0538 16.6886 13.1056 16.6886Z" fill="#C1BDBD"/>
</g>
<defs>
<clipPath id="clip0_89_404">
<rect width="25.3807" height="24.0791" fill="white" transform="translate(0.415039 0.886719)"/>
</clipPath>
</defs>
</svg>
