<svg width="33" height="31" viewBox="0 0 33 31" fill="none" xmlns="http://www.w3.org/2000/svg">
<g clip-path="url(#clip0_33_852)">
<path d="M31.4202 10.2376C31.623 10.7606 31.4519 11.3437 31.0147 11.7163L28.2712 14.0847C28.3409 14.5836 28.3789 15.0946 28.3789 15.6115C28.3789 16.1285 28.3409 16.6394 28.2712 17.1383L31.0147 19.5067C31.4519 19.8794 31.623 20.4625 31.4202 20.9854C31.1414 21.7008 30.8056 22.386 30.4191 23.0472L30.1213 23.5341C29.7032 24.1954 29.2343 24.8205 28.7211 25.4096C28.3473 25.8424 27.7263 25.9867 27.1688 25.8183L23.6396 24.7544C22.7906 25.3735 21.8528 25.8905 20.8518 26.2812L20.0598 29.7135C19.933 30.2605 19.4895 30.6933 18.9066 30.7835C18.0322 30.9218 17.1325 30.9939 16.2138 30.9939C15.2951 30.9939 14.3954 30.9218 13.521 30.7835C12.9381 30.6933 12.4946 30.2605 12.3678 29.7135L11.5758 26.2812C10.5748 25.8905 9.63702 25.3735 8.788 24.7544L5.26518 25.8244C4.70761 25.9927 4.08668 25.8424 3.71286 25.4156C3.19964 24.8265 2.73077 24.2014 2.3126 23.5401L2.0148 23.0532C1.62831 22.392 1.2925 21.7068 1.01372 20.9914C0.810963 20.4685 0.982035 19.8854 1.41922 19.5127L4.16271 17.1444C4.09302 16.6394 4.055 16.1285 4.055 15.6115C4.055 15.0946 4.09302 14.5836 4.16271 14.0847L1.41922 11.7163C0.982035 11.3437 0.810963 10.7606 1.01372 10.2376C1.2925 9.52229 1.62831 8.83703 2.0148 8.17581L2.3126 7.68891C2.73077 7.02769 3.19964 6.40254 3.71286 5.81345C4.08668 5.38066 4.70761 5.23639 5.26518 5.4047L8.79433 6.46866C9.64336 5.84952 10.5811 5.33257 11.5822 4.94185L12.3742 1.50952C12.5009 0.962508 12.9444 0.52971 13.5273 0.439544C14.4017 0.295278 15.3014 0.223145 16.2201 0.223145C17.1389 0.223145 18.0386 0.295278 18.9129 0.433533C19.4959 0.523699 19.9394 0.956497 20.0661 1.50351L20.8581 4.93584C21.8592 5.32656 22.7969 5.84351 23.6459 6.46265L27.1751 5.39869C27.7327 5.23038 28.3536 5.38066 28.7274 5.80744C29.2406 6.39653 29.7095 7.02168 30.1277 7.6829L30.4255 8.1698C30.812 8.83102 31.1478 9.51628 31.4266 10.2316L31.4202 10.2376ZM16.2201 20.4204C17.5645 20.4204 18.8537 19.9137 19.8043 19.0119C20.7549 18.1101 21.2889 16.8869 21.2889 15.6115C21.2889 14.3361 20.7549 13.113 19.8043 12.2111C18.8537 11.3093 17.5645 10.8027 16.2201 10.8027C14.8758 10.8027 13.5865 11.3093 12.6359 12.2111C11.6854 13.113 11.1513 14.3361 11.1513 15.6115C11.1513 16.8869 11.6854 18.1101 12.6359 19.0119C13.5865 19.9137 14.8758 20.4204 16.2201 20.4204Z" fill="#6A6A6A"/>
</g>
<defs>
<clipPath id="clip0_33_852">
<rect width="32.4404" height="30.7768" fill="white" transform="translate(0 0.223145)"/>
</clipPath>
</defs>
</svg>
