<svg width="29" height="28" viewBox="0 0 29 28" fill="none" xmlns="http://www.w3.org/2000/svg">
<g clip-path="url(#clip0_52_315)">
<path d="M27.7239 8.8363C27.9028 9.29774 27.7518 9.81221 27.3661 10.1411L24.9454 12.2308C25.0069 12.671 25.0404 13.1218 25.0404 13.578C25.0404 14.0341 25.0069 14.4849 24.9454 14.9252L27.3661 17.0149C27.7518 17.3438 27.9028 17.8582 27.7239 18.3197C27.4779 18.9508 27.1816 19.5555 26.8406 20.1389L26.5778 20.5685C26.2088 21.1519 25.7951 21.7036 25.3423 22.2233C25.0124 22.6052 24.4646 22.7325 23.9726 22.584L20.8586 21.6452C20.1095 22.1915 19.2821 22.6476 18.3988 22.9924L17.6999 26.0209C17.5881 26.5036 17.1968 26.8855 16.6825 26.965C15.911 27.087 15.1171 27.1507 14.3065 27.1507C13.4958 27.1507 12.702 27.087 11.9304 26.965C11.4161 26.8855 11.0248 26.5036 10.913 26.0209L10.2141 22.9924C9.33082 22.6476 8.50341 22.1915 7.75427 21.6452L4.6459 22.5893C4.15393 22.7378 3.60605 22.6052 3.27621 22.2286C2.82337 21.7089 2.40966 21.1573 2.04068 20.5738L1.77793 20.1442C1.4369 19.5608 1.1406 18.9561 0.894613 18.325C0.715714 17.8635 0.86666 17.3491 1.25241 17.0202L3.67314 14.9305C3.61164 14.4849 3.5781 14.0341 3.5781 13.578C3.5781 13.1218 3.61164 12.671 3.67314 12.2308L1.25241 10.1411C0.86666 9.81221 0.715714 9.29774 0.894613 8.8363C1.1406 8.20513 1.4369 7.60049 1.77793 7.01706L2.04068 6.58744C2.40966 6.00401 2.82337 5.45241 3.27621 4.93263C3.60605 4.55075 4.15393 4.42345 4.6459 4.57196L7.75986 5.51075C8.509 4.96445 9.33641 4.50831 10.2197 4.16356L10.9186 1.13503C11.0304 0.65238 11.4217 0.270499 11.936 0.19094C12.7075 0.0636468 13.5014 0 14.312 0C15.1227 0 15.9165 0.0636468 16.688 0.185636C17.2024 0.265195 17.5937 0.647076 17.7055 1.12973L18.4044 4.15826C19.2877 4.50301 20.1151 4.95915 20.8642 5.50545L23.9782 4.56666C24.4702 4.41815 25.018 4.55075 25.3479 4.92732C25.8007 5.4471 26.2144 5.99871 26.5834 6.58214L26.8462 7.01175C27.1872 7.59518 27.4835 8.19983 27.7295 8.83099L27.7239 8.8363ZM14.312 17.8211C15.4982 17.8211 16.6358 17.3741 17.4746 16.5783C18.3133 15.7826 18.7845 14.7033 18.7845 13.578C18.7845 12.4526 18.3133 11.3734 17.4746 10.5776C16.6358 9.7819 15.4982 9.33486 14.312 9.33486C13.1259 9.33486 11.9883 9.7819 11.1495 10.5776C10.3108 11.3734 9.83957 12.4526 9.83957 13.578C9.83957 14.7033 10.3108 15.7826 11.1495 16.5783C11.9883 17.3741 13.1259 17.8211 14.312 17.8211Z" fill="#C1BDBD"/>
</g>
<defs>
<clipPath id="clip0_52_315">
<rect width="28.6239" height="27.156" fill="white"/>
</clipPath>
</defs>
</svg>
