<svg width="15" height="13" viewBox="0 0 15 13" fill="none" xmlns="http://www.w3.org/2000/svg">
<g clip-path="url(#clip0_42_729)">
<path d="M7.60858 0C7.84215 0 8.0554 0.132031 8.15695 0.342773L9.89853 3.93047L13.7879 4.5043C14.0164 4.5373 14.2068 4.69727 14.2779 4.91816C14.3489 5.13906 14.2905 5.37773 14.1281 5.54023L11.3075 8.33828L11.9727 12.2891C12.0108 12.5176 11.9168 12.7486 11.7264 12.8857C11.536 13.0229 11.2872 13.0381 11.0841 12.9289L7.60605 11.0703L4.13305 12.9264C3.92741 13.0355 3.67862 13.0203 3.49075 12.8832C3.30288 12.7461 3.20641 12.515 3.24449 12.2865L3.90964 8.33574L1.0891 5.54023C0.924083 5.37773 0.868231 5.13652 0.939315 4.91816C1.0104 4.6998 1.20081 4.53984 1.42929 4.5043L5.31864 3.93047L7.06022 0.342773C7.1643 0.132031 7.37502 0 7.60858 0ZM7.60858 2.00586L6.27575 4.75312C6.18689 4.9334 6.01679 5.06035 5.81623 5.09082L2.81291 5.53262L4.99368 7.69336C5.13331 7.83301 5.19932 8.03105 5.16632 8.22656L4.65095 11.2658L7.32171 9.83887C7.50196 9.74238 7.71775 9.74238 7.89546 9.83887L10.5662 11.2658L10.0534 8.2291C10.0204 8.03359 10.0839 7.83555 10.226 7.6959L12.4068 5.53516L9.40347 5.09082C9.20545 5.06035 9.03282 4.93594 8.94396 4.75312L7.60858 2.00586Z" fill="#4E4E4E"/>
</g>
<defs>
<clipPath id="clip0_42_729">
<rect width="14.6231" height="13" fill="white" transform="translate(0.299561)"/>
</clipPath>
</defs>
</svg>
