<svg width="27" height="26" viewBox="0 0 27 26" fill="none" xmlns="http://www.w3.org/2000/svg">
<g clip-path="url(#clip0_89_410)">
<path d="M2.81277 2.37939C2.15346 2.37939 1.62305 2.90981 1.62305 3.56911V5.94855C1.62305 6.60785 2.15346 7.13827 2.81277 7.13827H5.1922C5.85151 7.13827 6.38192 6.60785 6.38192 5.94855V3.56911C6.38192 2.90981 5.85151 2.37939 5.1922 2.37939H2.81277ZM10.3477 3.17254C9.47023 3.17254 8.76136 3.88141 8.76136 4.75883C8.76136 5.63625 9.47023 6.34512 10.3477 6.34512H24.6243C25.5017 6.34512 26.2106 5.63625 26.2106 4.75883C26.2106 3.88141 25.5017 3.17254 24.6243 3.17254H10.3477ZM10.3477 11.104C9.47023 11.104 8.76136 11.8129 8.76136 12.6903C8.76136 13.5677 9.47023 14.2766 10.3477 14.2766H24.6243C25.5017 14.2766 26.2106 13.5677 26.2106 12.6903C26.2106 11.8129 25.5017 11.104 24.6243 11.104H10.3477ZM10.3477 19.0355C9.47023 19.0355 8.76136 19.7443 8.76136 20.6218C8.76136 21.4992 9.47023 22.208 10.3477 22.208H24.6243C25.5017 22.208 26.2106 21.4992 26.2106 20.6218C26.2106 19.7443 25.5017 19.0355 24.6243 19.0355H10.3477ZM1.62305 11.5006V13.88C1.62305 14.5393 2.15346 15.0697 2.81277 15.0697H5.1922C5.85151 15.0697 6.38192 14.5393 6.38192 13.88V11.5006C6.38192 10.8413 5.85151 10.3109 5.1922 10.3109H2.81277C2.15346 10.3109 1.62305 10.8413 1.62305 11.5006ZM2.81277 18.2423C2.15346 18.2423 1.62305 18.7727 1.62305 19.432V21.8115C1.62305 22.4708 2.15346 23.0012 2.81277 23.0012H5.1922C5.85151 23.0012 6.38192 22.4708 6.38192 21.8115V19.432C6.38192 18.7727 5.85151 18.2423 5.1922 18.2423H2.81277Z" fill="#C1BDBD"/>
</g>
<defs>
<clipPath id="clip0_89_410">
<rect width="25.3807" height="25.3807" fill="white" transform="translate(0.830078)"/>
</clipPath>
</defs>
</svg>
