<svg width="29" height="29" viewBox="0 0 29 29" fill="none" xmlns="http://www.w3.org/2000/svg">
<g clip-path="url(#clip0_52_321)">
<path d="M2.23627 2.68359C1.49273 2.68359 0.894531 3.28179 0.894531 4.02534V6.70882C0.894531 7.45237 1.49273 8.05057 2.23627 8.05057H4.91976C5.66331 8.05057 6.2615 7.45237 6.2615 6.70882V4.02534C6.2615 3.28179 5.66331 2.68359 4.91976 2.68359H2.23627ZM10.734 3.57809C9.74444 3.57809 8.94499 4.37754 8.94499 5.36708C8.94499 6.35662 9.74444 7.15607 10.734 7.15607H26.8349C27.8244 7.15607 28.6239 6.35662 28.6239 5.36708C28.6239 4.37754 27.8244 3.57809 26.8349 3.57809H10.734ZM10.734 12.523C9.74444 12.523 8.94499 13.3225 8.94499 14.312C8.94499 15.3016 9.74444 16.101 10.734 16.101H26.8349C27.8244 16.101 28.6239 15.3016 28.6239 14.312C28.6239 13.3225 27.8244 12.523 26.8349 12.523H10.734ZM10.734 21.468C9.74444 21.468 8.94499 22.2675 8.94499 23.257C8.94499 24.2465 9.74444 25.046 10.734 25.046H26.8349C27.8244 25.046 28.6239 24.2465 28.6239 23.257C28.6239 22.2675 27.8244 21.468 26.8349 21.468H10.734ZM0.894531 12.9703V15.6538C0.894531 16.3973 1.49273 16.9955 2.23627 16.9955H4.91976C5.66331 16.9955 6.2615 16.3973 6.2615 15.6538V12.9703C6.2615 12.2267 5.66331 11.6285 4.91976 11.6285H2.23627C1.49273 11.6285 0.894531 12.2267 0.894531 12.9703ZM2.23627 20.5735C1.49273 20.5735 0.894531 21.1717 0.894531 21.9152V24.5987C0.894531 25.3423 1.49273 25.9405 2.23627 25.9405H4.91976C5.66331 25.9405 6.2615 25.3423 6.2615 24.5987V21.9152C6.2615 21.1717 5.66331 20.5735 4.91976 20.5735H2.23627Z" fill="#C1BDBD"/>
</g>
<defs>
<clipPath id="clip0_52_321">
<rect width="28.6239" height="28.6239" fill="white"/>
</clipPath>
</defs>
</svg>
