<svg width="33" height="33" viewBox="0 0 33 33" fill="none" xmlns="http://www.w3.org/2000/svg">
<g clip-path="url(#clip0_33_858)">
<path d="M2.53444 3.50293C1.69175 3.50293 1.01379 4.18088 1.01379 5.02357V8.06486C1.01379 8.90755 1.69175 9.5855 2.53444 9.5855H5.57572C6.41841 9.5855 7.09636 8.90755 7.09636 8.06486V5.02357C7.09636 4.18088 6.41841 3.50293 5.57572 3.50293H2.53444ZM12.1652 4.51669C11.0437 4.51669 10.1376 5.42274 10.1376 6.54421C10.1376 7.66569 11.0437 8.57174 12.1652 8.57174H30.4129C31.5343 8.57174 32.4404 7.66569 32.4404 6.54421C32.4404 5.42274 31.5343 4.51669 30.4129 4.51669H12.1652ZM12.1652 14.6543C11.0437 14.6543 10.1376 15.5604 10.1376 16.6818C10.1376 17.8033 11.0437 18.7094 12.1652 18.7094H30.4129C31.5343 18.7094 32.4404 17.8033 32.4404 16.6818C32.4404 15.5604 31.5343 14.6543 30.4129 14.6543H12.1652ZM12.1652 24.7919C11.0437 24.7919 10.1376 25.698 10.1376 26.8194C10.1376 27.9409 11.0437 28.847 12.1652 28.847H30.4129C31.5343 28.847 32.4404 27.9409 32.4404 26.8194C32.4404 25.698 31.5343 24.7919 30.4129 24.7919H12.1652ZM1.01379 15.1612V18.2025C1.01379 19.0452 1.69175 19.7231 2.53444 19.7231H5.57572C6.41841 19.7231 7.09636 19.0452 7.09636 18.2025V15.1612C7.09636 14.3185 6.41841 13.6405 5.57572 13.6405H2.53444C1.69175 13.6405 1.01379 14.3185 1.01379 15.1612ZM2.53444 23.7782C1.69175 23.7782 1.01379 24.4561 1.01379 25.2988V28.3401C1.01379 29.1828 1.69175 29.8607 2.53444 29.8607H5.57572C6.41841 29.8607 7.09636 29.1828 7.09636 28.3401V25.2988C7.09636 24.4561 6.41841 23.7782 5.57572 23.7782H2.53444Z" fill="#6A6A6A"/>
</g>
<defs>
<clipPath id="clip0_33_858">
<rect width="32.4404" height="32.4404" fill="white" transform="translate(0 0.46167)"/>
</clipPath>
</defs>
</svg>
