<svg width="23" height="27" viewBox="0 0 23 27" fill="none" xmlns="http://www.w3.org/2000/svg">
<path d="M8.54878 3.90412C7.33377 5.90609 6.63369 8.26618 6.63369 10.7906C6.63369 16.5441 10.2672 21.4404 15.3355 23.2193C14.6181 23.3837 13.8717 23.4717 13.1022 23.4717C7.50155 23.4717 2.95393 18.8513 2.95393 13.139C2.95393 9.09397 5.23353 5.6008 8.55457 3.90412H8.54878ZM12.1418 0.0293543C5.4476 0.528378 0.176758 6.2055 0.176758 13.139C0.176758 20.4013 5.96254 26.2897 13.108 26.2897C15.8736 26.2897 18.4309 25.4091 20.5369 23.9062C20.6468 23.8298 20.751 23.7476 20.8551 23.6713C21.1329 23.46 21.399 23.2369 21.6594 23.002C21.8156 22.8611 21.966 22.7202 22.1164 22.5735C22.4057 22.2858 22.4809 21.8396 22.2958 21.4756C22.1106 21.1116 21.7114 20.9061 21.3122 20.9766C21.0981 21.0118 20.8841 21.047 20.67 21.0705C20.3807 21.0999 20.0856 21.1234 19.7848 21.1292C19.7153 21.1292 19.6401 21.1292 19.5707 21.1292C19.5649 21.1292 19.5591 21.1292 19.5533 21.1292C13.9527 21.1175 9.41665 16.4971 9.41665 10.7965C9.41665 7.57929 10.8573 4.70843 13.1253 2.81214C13.1832 2.75931 13.2468 2.71234 13.3105 2.6595C13.5419 2.47163 13.7849 2.29551 14.0337 2.13112C14.2131 2.01371 14.3982 1.89629 14.5891 1.79061C14.9421 1.58513 15.1214 1.17417 15.0346 0.774954C14.9479 0.375735 14.6123 0.0763213 14.2073 0.0410961C13.999 0.0234835 13.7965 0.0117416 13.5882 0.00587077C13.432 -8.96698e-08 13.27 0 13.1138 0C12.9228 0 12.7377 0.00587091 12.5468 0.0117418C12.4137 0.0176126 12.2806 0.0234834 12.1475 0.0352251L12.1418 0.0293543Z" fill="black"/>
</svg>
