<svg width="8" height="8" viewBox="0 0 8 8" fill="none" xmlns="http://www.w3.org/2000/svg">
<path d="M0.799805 2.4001C0.799805 2.18792 0.88409 1.98444 1.03412 1.83441C1.18415 1.68438 1.38763 1.6001 1.5998 1.6001H3.9998C4.21198 1.6001 4.41546 1.68438 4.56549 1.83441C4.71552 1.98444 4.7998 2.18792 4.7998 2.4001V5.6001C4.7998 5.81227 4.71552 6.01575 4.56549 6.16578C4.41546 6.31581 4.21198 6.4001 3.9998 6.4001H1.5998C1.38763 6.4001 1.18415 6.31581 1.03412 6.16578C0.88409 6.01575 0.799805 5.81227 0.799805 5.6001V2.4001ZM5.821 2.8425C5.75457 2.87569 5.69869 2.92673 5.65963 2.98989C5.62056 3.05305 5.59984 3.12583 5.5998 3.2001V4.8001C5.59984 4.87436 5.62056 4.94715 5.65963 5.01031C5.69869 5.07347 5.75457 5.1245 5.821 5.1577L6.621 5.5577C6.68197 5.58816 6.74971 5.60255 6.8178 5.59948C6.88589 5.59641 6.95206 5.576 7.01005 5.54018C7.06803 5.50435 7.1159 5.45431 7.14911 5.39479C7.18232 5.33527 7.19977 5.26825 7.1998 5.2001V2.8001C7.19977 2.73194 7.18232 2.66492 7.14911 2.60541C7.1159 2.54589 7.06803 2.49584 7.01005 2.46002C6.95206 2.4242 6.88589 2.40378 6.8178 2.40072C6.74971 2.39765 6.68197 2.41203 6.621 2.4425L5.821 2.8425Z" fill="#18181B"/>
</svg>
